<svg width="15" height="14" viewBox="0 0 15 14" fill="none" xmlns="http://www.w3.org/2000/svg">
<g clip-path="url(#clip0_340_9)">
<path d="M0.0297852 1.72667V6.39333H6.46979V-5.96046e-08H1.80312C1.30534 -5.96046e-08 0.885341 0.171111 0.543118 0.513333C0.200896 0.855556 0.0297852 1.27556 0.0297852 1.77333V1.72667ZM5.30312 5.22667H1.19645V1.72667C1.19645 1.57111 1.2509 1.43889 1.35979 1.33C1.46867 1.22111 1.6009 1.16667 1.75645 1.16667H5.30312V5.22667ZM0.0297852 12.2267C0.0297852 12.7244 0.200896 13.1444 0.543118 13.4867C0.885341 13.8289 1.28979 14 1.75645 14H6.46979V7.56H0.0297852V12.2267ZM1.19645 8.72667H5.30312V12.8333H1.80312C1.61645 12.8333 1.46867 12.7789 1.35979 12.67C1.2509 12.5611 1.19645 12.4133 1.19645 12.2267V8.72667ZM11.6965 12.5067V1.49333L13.1898 3.03333L14.0298 2.19333L12.3498 0.513333C12.0076 0.171111 11.5953 -5.96046e-08 11.1131 -5.96046e-08C10.6309 -5.96046e-08 10.2187 0.171111 9.87645 0.513333L8.19645 2.19333L9.03645 3.03333L10.5298 1.49333V12.5067L9.03645 10.9667L8.19645 11.8067L9.87645 13.4867C10.2187 13.8289 10.6309 14 11.1131 14C11.5953 14 12.0076 13.8289 12.3498 13.4867L14.0298 11.8067L13.1898 10.9667L11.6965 12.5067Z" fill="#ABABAB"/>
</g>
<defs>
<clipPath id="clip0_340_9">
<rect width="14" height="14" fill="white" transform="matrix(1 0 0 -1 0.0297852 14)"/>
</clipPath>
</defs>
</svg>
